<svg width="24" height="18" viewBox="0 0 24 18" fill="none" xmlns="http://www.w3.org/2000/svg">
<path fill-rule="evenodd" clip-rule="evenodd" d="M13.6262 0.292893C14.0168 -0.0976311 14.6499 -0.0976311 15.0404 0.292893L23.0404 8.29289C23.431 8.68342 23.431 9.31658 23.0404 9.70711L15.0404 17.7071C14.6499 18.0976 14.0168 18.0976 13.6262 17.7071C13.2357 17.3166 13.2357 16.6834 13.6262 16.2929L19.9191 10H8.33333C7.78105 10 7.33333 9.55229 7.33333 9C7.33333 8.44772 7.78105 8 8.33333 8H19.9191L13.6262 1.70711C13.2357 1.31658 13.2357 0.683418 13.6262 0.292893ZM0 9C0 8.44772 0.447715 8 1 8H4.33333C4.88562 8 5.33333 8.44772 5.33333 9C5.33333 9.55229 4.88562 10 4.33333 10H1C0.447715 10 0 9.55229 0 9Z" fill="white"/>
</svg>
